<svg data-v-423bf9ae="" xmlns="http://www.w3.org/2000/svg" viewBox="0 0 228.64130347929589 60" class="font"><!----><!----><!----><g data-v-423bf9ae="" id="30872c30-5304-4764-863d-1729d486bed6" fill="white" transform="matrix(5.434782627474683,0,0,5.434782627474683,-0.5978264283217385,-11.84782720596143)"><path d="M9.17 13.05L7.69 13.05L7.69 13.05Q7.45 12.42 7.24 11.81L7.24 11.81L7.24 11.81Q7.03 11.20 6.80 10.57L6.80 10.57L2.41 10.57L1.53 13.05L0.11 13.05L0.11 13.05Q0.67 11.51 1.16 10.20L1.16 10.20L1.16 10.20Q1.65 8.89 2.12 7.71L2.12 7.71L2.12 7.71Q2.59 6.54 3.05 5.47L3.05 5.47L3.05 5.47Q3.51 4.40 4.02 3.35L4.02 3.35L5.26 3.35L5.26 3.35Q5.77 4.40 6.23 5.47L6.23 5.47L6.23 5.47Q6.69 6.54 7.16 7.71L7.16 7.71L7.16 7.71Q7.63 8.89 8.12 10.20L8.12 10.20L8.12 10.20Q8.61 11.51 9.17 13.05L9.17 13.05ZM2.80 9.45L6.41 9.45L6.41 9.45Q5.96 8.23 5.52 7.09L5.52 7.09L5.52 7.09Q5.08 5.95 4.61 4.90L4.61 4.90L4.61 4.90Q4.12 5.95 3.68 7.09L3.68 7.09L3.68 7.09Q3.23 8.23 2.80 9.45L2.80 9.45ZM10.40 13.05L10.40 5.98L10.40 5.98Q10.85 5.87 11.59 5.74L11.59 5.74L11.59 5.74Q12.33 5.61 13.30 5.61L13.30 5.61L13.30 5.61Q14.17 5.61 14.74 5.86L14.74 5.86L14.74 5.86Q15.32 6.10 15.66 6.54L15.66 6.54L15.66 6.54Q16.00 6.99 16.14 7.60L16.14 7.60L16.14 7.60Q16.28 8.22 16.28 8.96L16.28 8.96L16.28 13.05L14.98 13.05L14.98 9.24L14.98 9.24Q14.98 8.57 14.89 8.09L14.89 8.09L14.89 8.09Q14.80 7.62 14.59 7.32L14.59 7.32L14.59 7.32Q14.38 7.03 14.03 6.89L14.03 6.89L14.03 6.89Q13.68 6.76 13.16 6.76L13.16 6.76L13.16 6.76Q12.95 6.76 12.73 6.78L12.73 6.78L12.73 6.78Q12.50 6.79 12.30 6.81L12.30 6.81L12.30 6.81Q12.10 6.83 11.94 6.86L11.94 6.86L11.94 6.86Q11.77 6.89 11.70 6.90L11.70 6.90L11.70 13.05L10.40 13.05ZM18.44 13.05L18.44 5.98L18.44 5.98Q18.89 5.87 19.63 5.74L19.63 5.74L19.63 5.74Q20.37 5.61 21.34 5.61L21.34 5.61L21.34 5.61Q22.20 5.61 22.78 5.86L22.78 5.86L22.78 5.86Q23.35 6.10 23.69 6.54L23.69 6.54L23.69 6.54Q24.04 6.99 24.18 7.60L24.18 7.60L24.18 7.60Q24.32 8.22 24.32 8.96L24.32 8.96L24.32 13.05L23.02 13.05L23.02 9.24L23.02 9.24Q23.02 8.57 22.92 8.09L22.92 8.09L22.92 8.09Q22.83 7.62 22.62 7.32L22.62 7.32L22.62 7.32Q22.41 7.03 22.06 6.89L22.06 6.89L22.06 6.89Q21.71 6.76 21.20 6.76L21.20 6.76L21.20 6.76Q20.99 6.76 20.76 6.78L20.76 6.78L20.76 6.78Q20.54 6.79 20.33 6.81L20.33 6.81L20.33 6.81Q20.13 6.83 19.97 6.86L19.97 6.86L19.97 6.86Q19.81 6.89 19.74 6.90L19.74 6.90L19.74 13.05L18.44 13.05ZM28.94 12.11L28.94 12.11L28.94 12.11Q29.40 12.11 29.76 12.09L29.76 12.09L29.76 12.09Q30.11 12.07 30.35 12.01L30.35 12.01L30.35 9.84L30.35 9.84Q30.21 9.77 29.90 9.72L29.90 9.72L29.90 9.72Q29.58 9.67 29.13 9.67L29.13 9.67L29.13 9.67Q28.84 9.67 28.51 9.72L28.51 9.72L28.51 9.72Q28.18 9.76 27.91 9.89L27.91 9.89L27.91 9.89Q27.64 10.02 27.45 10.25L27.45 10.25L27.45 10.25Q27.27 10.49 27.27 10.86L27.27 10.86L27.27 10.86Q27.27 11.56 27.72 11.84L27.72 11.84L27.72 11.84Q28.17 12.11 28.94 12.11ZM28.83 5.59L28.83 5.59L28.83 5.59Q29.61 5.59 30.15 5.79L30.15 5.79L30.15 5.79Q30.69 5.99 31.02 6.36L31.02 6.36L31.02 6.36Q31.35 6.73 31.49 7.25L31.49 7.25L31.49 7.25Q31.63 7.76 31.63 8.37L31.63 8.37L31.63 12.92L31.63 12.92Q31.46 12.95 31.16 13.00L31.16 13.00L31.16 13.00Q30.86 13.05 30.48 13.09L30.48 13.09L30.48 13.09Q30.10 13.13 29.66 13.17L29.66 13.17L29.66 13.17Q29.22 13.20 28.78 13.20L28.78 13.20L28.78 13.20Q28.17 13.20 27.65 13.08L27.65 13.08L27.65 13.08Q27.13 12.95 26.75 12.68L26.75 12.68L26.75 12.68Q26.38 12.40 26.17 11.96L26.17 11.96L26.17 11.96Q25.96 11.51 25.96 10.88L25.96 10.88L25.96 10.88Q25.96 10.28 26.20 9.84L26.20 9.84L26.20 9.84Q26.45 9.41 26.87 9.14L26.87 9.14L26.87 9.14Q27.29 8.88 27.85 8.75L27.85 8.75L27.85 8.75Q28.41 8.62 29.02 8.62L29.02 8.62L29.02 8.62Q29.22 8.62 29.43 8.64L29.43 8.64L29.43 8.64Q29.64 8.67 29.83 8.70L29.83 8.70L29.83 8.70Q30.02 8.74 30.16 8.76L30.16 8.76L30.16 8.76Q30.30 8.79 30.35 8.81L30.35 8.81L30.35 8.44L30.35 8.44Q30.35 8.12 30.28 7.80L30.28 7.80L30.28 7.80Q30.21 7.49 30.03 7.25L30.03 7.25L30.03 7.25Q29.85 7 29.53 6.85L29.53 6.85L29.53 6.85Q29.22 6.71 28.71 6.71L28.71 6.71L28.71 6.71Q28.07 6.71 27.59 6.80L27.59 6.80L27.59 6.80Q27.10 6.89 26.87 6.99L26.87 6.99L26.71 5.91L26.71 5.91Q26.96 5.80 27.55 5.69L27.55 5.69L27.55 5.69Q28.14 5.59 28.83 5.59ZM36.15 12.10L35.97 13.19L35.97 13.19Q34.76 13.16 34.26 12.67L34.26 12.67L34.26 12.67Q33.75 12.18 33.75 11.14L33.75 11.14L33.75 2.41L35.06 2.18L35.06 10.93L35.06 10.93Q35.06 11.26 35.11 11.47L35.11 11.47L35.11 11.47Q35.17 11.68 35.29 11.80L35.29 11.80L35.29 11.80Q35.42 11.93 35.63 11.99L35.63 11.99L35.63 11.99Q35.84 12.05 36.15 12.10L36.15 12.10ZM39.30 12.11L39.30 12.11L39.30 12.11Q40.10 12.11 40.48 11.90L40.48 11.90L40.48 11.90Q40.87 11.69 40.87 11.23L40.87 11.23L40.87 11.23Q40.87 10.75 40.49 10.47L40.49 10.47L40.49 10.47Q40.11 10.19 39.24 9.84L39.24 9.84L39.24 9.84Q38.82 9.67 38.44 9.50L38.44 9.50L38.44 9.50Q38.05 9.32 37.77 9.09L37.77 9.09L37.77 9.09Q37.49 8.85 37.32 8.51L37.32 8.51L37.32 8.51Q37.16 8.18 37.16 7.69L37.16 7.69L37.16 7.69Q37.16 6.72 37.87 6.15L37.87 6.15L37.87 6.15Q38.58 5.59 39.82 5.59L39.82 5.59L39.82 5.59Q40.12 5.59 40.43 5.62L40.43 5.62L40.43 5.62Q40.74 5.66 41.01 5.71L41.01 5.71L41.01 5.71Q41.27 5.75 41.48 5.81L41.48 5.81L41.48 5.81Q41.68 5.87 41.79 5.91L41.79 5.91L41.55 7.03L41.55 7.03Q41.34 6.92 40.89 6.80L40.89 6.80L40.89 6.80Q40.45 6.68 39.82 6.68L39.82 6.68L39.82 6.68Q39.27 6.68 38.86 6.89L38.86 6.89L38.86 6.89Q38.46 7.11 38.46 7.57L38.46 7.57L38.46 7.57Q38.46 7.81 38.55 7.99L38.55 7.99L38.55 7.99Q38.64 8.18 38.83 8.32L38.83 8.32L38.83 8.32Q39.02 8.47 39.30 8.60L39.30 8.60L39.30 8.60Q39.58 8.72 39.97 8.86L39.97 8.86L39.97 8.86Q40.49 9.06 40.89 9.25L40.89 9.25L40.89 9.25Q41.30 9.44 41.59 9.69L41.59 9.69L41.59 9.69Q41.87 9.94 42.03 10.30L42.03 10.30L42.03 10.30Q42.18 10.65 42.18 11.17L42.18 11.17L42.18 11.17Q42.18 12.18 41.43 12.70L41.43 12.70L41.43 12.70Q40.68 13.22 39.30 13.22L39.30 13.22L39.30 13.22Q38.33 13.22 37.79 13.05L37.79 13.05L37.79 13.05Q37.24 12.89 37.04 12.81L37.04 12.81L37.28 11.69L37.28 11.69Q37.51 11.77 38.00 11.94L38.00 11.94L38.00 11.94Q38.49 12.11 39.30 12.11Z"></path></g><!----><!----></svg>