<?xml version="1.0" encoding="iso-8859-1"?>
<!-- Generator: Adobe Illustrator 19.0.0, SVG Export Plug-In . SVG Version: 6.00 Build 0)  -->
<svg version="1.1" id="Layer_1" xmlns="http://www.w3.org/2000/svg" xmlns:xlink="http://www.w3.org/1999/xlink" x="0px" y="0px"
	 viewBox="0 0 512 512" style="enable-background:new 0 0 512 512;" xml:space="preserve">
<path style="fill:#FF905E;" d="M97.949,371.909c-7.835-3.632-16.557-5.671-25.76-5.671c-33.879,0-61.343,27.464-61.343,61.343
	s27.464,61.344,61.343,61.344s61.343-27.464,61.343-61.344c0-3.414-0.292-6.758-0.828-10.019
	C114.069,409.918,100.42,392.634,97.949,371.909z"/>
<path style="fill:#2275AA;" d="M478.493,512H197.941c-12.515,0-22.662-10.146-22.662-22.662v-67.55
	c0-12.515,10.146-22.662,22.662-22.662h280.552c12.515,0,22.662,10.146,22.662,22.662v67.55C501.155,501.854,491.01,512,478.493,512
	z"/>
<g>
	<circle style="fill:#FF905E;" cx="72.189" cy="61.343" r="61.343"/>
	<circle style="fill:#FF905E;" cx="255.307" cy="61.343" r="61.343"/>
	<circle style="fill:#FF905E;" cx="72.189" cy="244.458" r="61.343"/>
</g>
<path style="fill:#FFE49C;" d="M478.493,444.449h-324.31c-43.732,0-79.313-35.58-79.313-79.313c0-43.734,35.58-79.313,79.313-79.313
	h21.096v-97.323c0-43.734,35.58-79.313,79.313-79.313s79.313,35.58,79.313,79.313v43.374h106.819
	c33.322,0,60.431,27.109,60.431,60.431v129.481C501.155,434.304,491.01,444.449,478.493,444.449z"/>
<g>
	<path style="fill:#E87E04;" d="M438.426,183.119c-37.698,0-66.726,33.793-60.507,71.419h62.804
		c20.395,0,37.003,16.168,37.735,36.384c13.043-11.249,21.311-27.883,21.311-46.459
		C499.771,210.584,472.305,183.119,438.426,183.119z"/>
	<path style="fill:#E87E04;" d="M255.308,0v122.688c33.879,0,61.343-27.464,61.343-61.343C316.652,27.464,289.187,0,255.308,0z"/>
	<circle style="fill:#E87E04;" cx="438.428" cy="61.343" r="61.343"/>
</g>
<path style="fill:#FFC72D;" d="M440.724,231.877H333.905v-43.374c0-43.494-35.194-78.906-78.597-79.295V444.45h223.185
	c12.515,0,22.662-10.146,22.662-22.662V292.308C501.155,258.985,474.046,231.877,440.724,231.877z"/>
<g>
	<path style="fill:#F59D00;" d="M356.566,337.631c12.515,0,22.662-10.146,22.662-22.662v-83.093h-45.323v83.093
		C333.905,327.485,344.051,337.631,356.566,337.631z"/>
	<path style="fill:#F59D00;" d="M417.531,231.877v83.093c0,12.515,10.146,22.662,22.662,22.662s22.662-10.146,22.662-22.662v-78.878
		C449.767,230.922,441.863,231.877,417.531,231.877z"/>
</g>
<g>
</g>
<g>
</g>
<g>
</g>
<g>
</g>
<g>
</g>
<g>
</g>
<g>
</g>
<g>
</g>
<g>
</g>
<g>
</g>
<g>
</g>
<g>
</g>
<g>
</g>
<g>
</g>
<g>
</g>
</svg>
