<svg version="1.1" id="Layer_1" xmlns="http://www.w3.org/2000/svg" xmlns:xlink="http://www.w3.org/1999/xlink" x="0px" y="0px"
	 viewBox="0 0 512 512" style="enable-background:new 0 0 512 512;" xml:space="preserve">
<rect x="10.199" y="77.004" style="fill:#EDEDED;" width="491.602" height="398.789"/>
<path d="M40.287,54.566c5.633,0,10.199-4.566,10.199-10.199v-8.159c0-5.633-4.566-10.199-10.199-10.199s-10.199,4.566-10.199,10.199
	v8.159C30.088,50,34.654,54.566,40.287,54.566z"/>
<path d="M325.355,113.721h149.928c5.633,0,10.199-4.566,10.199-10.199c0-5.633-4.566-10.199-10.199-10.199H325.355
	c-5.633,0-10.199,4.566-10.199,10.199C315.155,109.155,319.722,113.721,325.355,113.721z"/>
<path d="M266.199,113.721h14.279c5.633,0,10.199-4.566,10.199-10.199c0-5.633-4.566-10.199-10.199-10.199h-14.279
	c-5.633,0-10.199,4.566-10.199,10.199C256,109.155,260.566,113.721,266.199,113.721z"/>
<path d="M501.801,66.805h-19.888V36.207c0-5.633-4.566-10.199-10.199-10.199s-10.199,4.566-10.199,10.199v30.598h-87.458V36.207
	c0-5.633-4.566-10.199-10.199-10.199c-5.633,0-10.199,4.566-10.199,10.199v30.598h-87.458V36.207
	c0-5.633-4.566-10.199-10.199-10.199s-10.199,4.566-10.199,10.199v30.598h-87.458V36.207c0-5.633-4.566-10.199-10.199-10.199
	s-10.199,4.566-10.199,10.199v30.598H10.199C4.566,66.805,0,71.371,0,77.004v398.789c0,5.633,4.566,10.199,10.199,10.199h491.602
	c5.633,0,10.199-4.566,10.199-10.199V77.004C512,71.371,507.434,66.805,501.801,66.805z M491.602,465.594H20.398V87.203h471.203
	V465.594z"/>
<path style="fill:#FFBC52;" d="M399.809,300.367c19.816,0,37.786,7.864,50.996,20.622v-191.15H61.195v294.141h285.022
	c-12.299-13.129-19.843-30.768-19.843-50.178C326.375,333.244,359.252,300.367,399.809,300.367z"/>
<path style="fill:#D1392A;" d="M450.805,320.988c-13.21-12.759-31.18-20.622-50.996-20.622c-40.557,0-73.434,32.877-73.434,73.434
	c0,19.41,7.543,37.049,19.843,50.178c13.399,14.305,32.445,23.256,53.592,23.256c40.557,0,73.434-32.877,73.434-73.434
	C473.243,353.061,464.631,334.342,450.805,320.988z"/>
<path d="M461.004,316.878v-187.04c0-5.633-4.566-10.199-10.199-10.199H61.195c-5.633,0-10.199,4.566-10.199,10.199v294.141
	c0,5.633,4.566,10.199,10.199,10.199h280.833c15.029,14.388,35.382,23.256,57.781,23.256c46.116,0,83.633-37.518,83.633-83.633
	C483.442,351.828,474.912,331.819,461.004,316.878z M382.308,140.037h58.298v51.594h-58.298V140.037z M382.308,212.029h58.298
	v54.835h-58.298V212.029z M440.606,287.263v13.569c-12.078-6.779-25.989-10.664-40.797-10.664c-6.002,0-11.854,0.649-17.501,1.856
	v-4.761H440.606z M305.036,140.037h56.874v51.594h-56.874V140.037z M305.036,212.029h56.874v54.835h-56.874V212.029z
	 M305.036,287.263h56.874v12.022c-17.7,9.039-31.774,24.185-39.414,42.657h-17.46V287.263z M128.891,413.78H71.394v-51.44h57.497
	V413.78z M128.891,341.943H71.394v-54.679h57.497V341.943z M128.891,266.864H71.394v-54.835h57.497V266.864z M128.891,191.631
	H71.394v-51.594h57.497V191.631z M206.964,413.78H149.29v-51.44h57.674V413.78z M206.964,341.943H149.29v-54.679h57.674V341.943z
	 M206.964,266.864H149.29v-54.835h57.674V266.864z M206.964,191.631H149.29v-51.594h57.674V191.631z M284.637,413.78h-57.275v-51.44
	h57.275V413.78z M284.637,341.943h-57.275v-54.679h57.275V341.943z M284.637,266.864h-57.275v-54.835h57.275V266.864z
	 M284.637,191.631h-57.275v-51.594h57.275V191.631z M305.036,362.341h11.944c-0.516,3.749-0.805,7.571-0.805,11.46
	c0,14.472,3.698,28.095,10.194,39.979h-21.334V362.341z M399.809,437.036c-34.868,0-63.235-28.367-63.235-63.235
	s28.367-63.235,63.235-63.235s63.235,28.367,63.235,63.235S434.677,437.036,399.809,437.036z"/>
<path d="M384.51,411.538c-2.61,0-5.221-0.995-7.212-2.987L356.9,388.152c-3.983-3.983-3.983-10.441,0-14.425
	c3.983-3.983,10.441-3.983,14.425,0l13.186,13.188l39.704-39.704c3.983-3.983,10.441-3.983,14.425,0
	c3.983,3.983,3.983,10.441,0,14.425l-46.916,46.916C389.731,410.542,387.12,411.538,384.51,411.538z"/>
<g>
</g>
<g>
</g>
<g>
</g>
<g>
</g>
<g>
</g>
<g>
</g>
<g>
</g>
<g>
</g>
<g>
</g>
<g>
</g>
<g>
</g>
<g>
</g>
<g>
</g>
<g>
</g>
<g>
</g>
</svg>
